<svg width="19" height="23" viewBox="0 0 19 23" fill="none" xmlns="http://www.w3.org/2000/svg">
<path d="M14.1507 0.01151C14.101 -0.0431147 12.3106 0.0330724 10.7526 1.69625C9.19456 3.35799 9.43425 5.26411 9.46933 5.31298C9.50441 5.36186 11.6909 5.43804 13.0867 3.50462C14.4825 1.57119 14.2004 0.0675722 14.1507 0.01151ZM18.9943 16.8776C18.9242 16.7396 15.5962 15.1037 15.906 11.9585C16.2159 8.81328 18.3541 7.94934 18.3878 7.85591C18.4214 7.76247 17.5152 6.72029 16.555 6.19273C15.8498 5.82114 15.0696 5.60806 14.2705 5.56886C14.1127 5.56454 13.5646 5.43229 12.4378 5.73561C11.6953 5.93542 10.0218 6.58229 9.56141 6.60816C9.09955 6.63404 7.72569 5.85779 6.24805 5.65223C5.30243 5.47254 4.2998 5.84054 3.58217 6.12373C2.86601 6.40548 1.50384 7.2076 0.550899 9.3394C-0.402037 11.4698 0.0963544 14.845 0.452975 15.8944C0.809595 16.9437 1.36645 18.6601 2.31354 19.9136C3.1554 21.3281 4.27203 22.3099 4.73826 22.6434C5.2045 22.9769 6.5199 23.1983 7.43192 22.7397C8.16562 22.297 9.48979 22.0425 10.013 22.0612C10.5348 22.0799 11.5637 22.2826 12.6175 22.836C13.4521 23.1192 14.2413 23.0013 15.032 22.6851C15.8227 22.3674 16.9671 21.1628 18.303 18.7205C18.8097 17.5849 19.0401 16.9706 18.9943 16.8776Z" fill="#A2AAAD"/>
</svg>
