<svg width="23" height="23" viewBox="0 0 23 23" fill="none" xmlns="http://www.w3.org/2000/svg">
<g clip-path="url(#clip0_21_108)">
<path d="M20.7122 18.4671C20.0377 18.1909 19.7492 17.8243 19.7771 17.2774C19.8058 16.6389 19.4436 16.1713 19.2716 15.9866C19.3755 15.5896 19.6792 14.2164 19.2719 13.0236C18.8343 11.7469 17.498 9.79702 16.1192 7.88032C15.5547 7.09319 15.528 6.23758 15.4972 5.24684C15.4676 4.30187 15.4343 3.23074 14.9073 2.04002C14.3344 0.743486 13.1847 1.52588e-05 11.7528 1.52588e-05C10.9011 1.52588e-05 10.0268 0.266214 9.35397 0.730289C7.97622 1.68114 8.15834 3.75424 8.27884 5.12603C8.29536 5.31388 8.31089 5.49132 8.31994 5.64282C8.40018 6.98633 8.32718 7.69443 8.23171 7.90965C8.16995 8.05029 7.8659 8.45057 7.54412 8.87438C7.21133 9.31266 6.83406 9.80947 6.5248 10.2724C6.15582 10.8295 5.85794 11.6809 5.56988 12.5043C5.35911 13.1069 5.16002 13.676 4.96622 14.0161C4.59889 14.6703 4.69029 15.2804 4.76661 15.5624C4.62755 15.659 4.42666 15.8492 4.25706 16.2077C4.05209 16.645 3.63621 16.8801 2.7714 17.0464C2.37399 17.1277 2.09995 17.2948 1.95667 17.543C1.74816 17.9043 1.86173 18.3583 1.96534 18.6685C2.11842 19.1246 2.02303 19.4133 1.84958 19.9374C1.80962 20.0583 1.76429 20.1953 1.71837 20.3463C1.64605 20.5847 1.67214 20.8014 1.79574 20.9905C2.12234 21.4898 3.07538 21.6659 4.05647 21.7817C4.64225 21.8512 5.28339 22.0855 5.90349 22.3122C6.51107 22.5342 7.13932 22.7638 7.7104 22.8335C7.7972 22.8444 7.88316 22.8499 7.96604 22.8499C8.82828 22.8499 9.21785 22.2778 9.34137 22.0428C9.65108 21.9796 10.7193 21.7772 11.8202 21.75C12.9194 21.7186 13.9829 21.9357 14.2841 22.0032C14.3789 22.1845 14.6285 22.5985 15.0266 22.8119C15.2453 22.9315 15.5498 23 15.8616 23H15.8617C16.1947 23 16.8282 22.9213 17.3296 22.3938C17.8297 21.8638 19.0793 21.1872 19.9917 20.6932C20.1953 20.583 20.3858 20.4798 20.5529 20.3867C21.0654 20.1025 21.3451 19.6965 21.3202 19.2728C21.2993 18.9208 21.0664 18.6121 20.7122 18.4671ZM9.3652 18.3651C9.30141 17.9156 8.72324 17.4699 8.05367 16.9538C7.50619 16.5317 6.88564 16.0534 6.71468 15.6483C6.36138 14.8126 6.63987 13.3431 7.12544 12.5865C7.3654 12.2076 7.56139 11.633 7.75097 11.0774C7.95563 10.4775 8.16731 9.85713 8.40402 9.58557C8.77889 9.16162 9.12532 8.3367 9.18671 7.68659C9.53774 8.02171 10.0823 8.44695 10.5853 8.44695C10.6628 8.44695 10.738 8.43685 10.8098 8.41656C11.154 8.31717 11.6602 8.02465 12.1498 7.74187C12.5719 7.49799 13.0924 7.19725 13.2882 7.16988C13.624 7.65205 15.5752 11.9701 15.7746 13.3568C15.9324 14.4541 15.7657 15.3611 15.6819 15.7164C15.6145 15.7072 15.5341 15.6997 15.4497 15.6997C14.9062 15.6997 14.7623 15.9964 14.7248 16.1735C14.6285 16.6337 14.6183 18.1054 14.6172 18.436C14.4207 18.6857 13.4269 19.8615 12 20.0729C11.4189 20.1573 10.8761 20.2002 10.387 20.2002C9.96894 20.2002 9.70214 20.1679 9.59136 20.1511L8.87436 19.3307C9.15707 19.1911 9.43971 18.8966 9.3652 18.3651ZM10.275 4.83751C10.2526 4.84717 10.2306 4.8575 10.209 4.86851C10.2068 4.81994 10.2017 4.7707 10.194 4.72131C10.1157 4.27073 9.81691 3.94367 9.48367 3.94367C9.45901 3.94367 9.4342 3.94556 9.40698 3.94971C9.20873 3.98274 9.05323 4.13167 8.96802 4.34282C9.04275 3.8795 9.30525 3.53646 9.6167 3.53646C9.98244 3.53646 10.2914 4.02934 10.2914 4.61271C10.2914 4.68624 10.286 4.75939 10.275 4.83751ZM13.1169 5.18493C13.1504 5.0783 13.1685 4.96292 13.1685 4.84317C13.1685 4.31424 12.8329 3.89986 12.4045 3.89986C11.9859 3.89986 11.6452 4.32299 11.6452 4.84317C11.6452 4.87861 11.647 4.91413 11.6503 4.94957C11.6281 4.94105 11.6065 4.93276 11.5854 4.92476C11.5372 4.77884 11.5128 4.62659 11.5128 4.47117C11.5128 3.8387 11.917 3.3241 12.414 3.3241C12.9108 3.3241 13.3151 3.8387 13.3151 4.47117C13.3151 4.73428 13.2425 4.98539 13.1169 5.18493ZM12.7505 6.41593C12.7434 6.4479 12.7281 6.46208 12.5597 6.5497C12.4746 6.59397 12.3687 6.64909 12.2362 6.72978L12.1477 6.7834C11.7919 6.99907 10.9588 7.50425 10.7327 7.53388C10.5791 7.55455 10.4841 7.49497 10.2704 7.34981C10.2222 7.317 10.171 7.28216 10.1163 7.2471C9.73117 6.9944 9.48345 6.71606 9.45547 6.60724C9.58103 6.51019 9.89225 6.26729 10.0516 6.12349C10.375 5.82275 10.7005 5.62065 10.8616 5.62065C10.8701 5.62065 10.8778 5.62125 10.8858 5.62276C11.0751 5.65617 11.5419 5.84251 11.8829 5.97855C12.0405 6.04144 12.1767 6.09573 12.2724 6.13012C12.5741 6.23373 12.7314 6.36631 12.7505 6.41593ZM15.4613 20.4701C15.6315 19.7024 15.8276 18.658 15.7958 18.0422C15.7885 17.9024 15.7761 17.7501 15.7641 17.6029C15.7418 17.3277 15.7085 16.9185 15.7428 16.7972C15.7496 16.794 15.7571 16.7913 15.7655 16.789C15.7669 17.141 15.8434 17.8432 16.4049 18.088C16.5722 18.161 16.7635 18.198 16.9733 18.198C17.5358 18.198 18.1599 17.922 18.4155 17.6664C18.566 17.5159 18.6926 17.3317 18.7813 17.1859C18.8007 17.2427 18.8126 17.3169 18.8064 17.4125C18.7729 17.9317 19.0253 18.6205 19.5055 18.8743L19.5754 18.911C19.7464 19.0008 20.2007 19.2393 20.208 19.3524C20.208 19.3524 20.2042 19.3658 20.1788 19.3893C20.065 19.4933 19.6645 19.6978 19.2772 19.8956C18.5901 20.2464 17.8114 20.644 17.4616 21.0119C16.9692 21.5301 16.4122 21.8782 16.0759 21.8782C16.0354 21.8782 15.9985 21.8731 15.9657 21.8627C15.6004 21.7488 15.2998 21.2218 15.4613 20.4701ZM3.01022 18.5115C2.97297 18.3372 2.94356 18.1995 2.97516 18.0662C2.99808 17.9674 3.48576 17.8616 3.69405 17.8164C3.98686 17.7528 4.28971 17.6871 4.48774 17.5669C4.75552 17.4047 4.90054 17.1056 5.02843 16.8416C5.12103 16.6508 5.21666 16.4534 5.33045 16.3886C5.33686 16.3849 5.34666 16.3805 5.36536 16.3805C5.57855 16.3805 6.02588 16.8287 6.28364 17.2298C6.34902 17.3309 6.47013 17.5335 6.61024 17.7681C7.02929 18.4693 7.60309 19.4296 7.90277 19.7515C8.17282 20.0408 8.60997 20.5971 8.50243 21.0743C8.42371 21.4445 8.00458 21.7455 7.90571 21.8121C7.86982 21.8202 7.8254 21.8244 7.77314 21.8244C7.19957 21.8244 6.06419 21.3472 5.4542 21.0908L5.36393 21.0528C5.0233 20.91 4.46723 20.8201 3.92948 20.733C3.5016 20.6637 2.91566 20.5689 2.81853 20.4833C2.7398 20.395 2.83112 20.1079 2.91166 19.8546C2.96965 19.6725 3.02953 19.4843 3.06233 19.2873C3.10886 18.973 3.05411 18.7171 3.01022 18.5115Z" fill="black"/>
</g>
<defs>
<clipPath id="clip0_21_108">
<rect width="23" height="23" fill="white"/>
</clipPath>
</defs>
</svg>
